HIERARCHY
ROOT hip
{
  OFFSET 0 0 0
  CHANNELS 6 Xposition Yposition Zposition Zrotation Yrotation Xrotation
  JOINT abdomen
  {
    OFFSET 0 20.6881 -0.73152
    CHANNELS 3 Zrotation Xrotation Yrotation
    JOINT chest
    {
      OFFSET 0 11.7043 -0.48768
      CHANNELS 3 Zrotation Xrotation Yrotation
      JOINT neck
      {
        OFFSET 0 22.1894 -2.19456
        CHANNELS 3 Zrotation Xrotation Yrotation
        JOINT head
        {
          OFFSET -0.24384 7.07133 1.2192
          CHANNELS 3 Zrotation Xrotation Yrotation
          JOINT leftEye
          {
            OFFSET 4.14528 8.04674 8.04672
            CHANNELS 3 Zrotation Xrotation Yrotation
            End Site
            {
              OFFSET 1 0 0
            }
          }
          JOINT rightEye
          {
            OFFSET -3.6576 8.04674 8.04672
            CHANNELS 3 Zrotation Xrotation Yrotation
            End Site
            {
              OFFSET 1 0 0
            }
          }
        }
      }
      JOINT rCollar
      {
        OFFSET -2.68224 19.2634 -4.8768
        CHANNELS 3 Zrotation Xrotation Yrotation
        JOINT rShldr
        {
          OFFSET -8.77824 -1.95073 1.46304
          CHANNELS 3 Zrotation Xrotation Yrotation
          JOINT rForeArm
          {
            OFFSET -28.1742 -1.7115 0.48768
            CHANNELS 3 Zrotation Xrotation Yrotation
            JOINT rHand
            {
              OFFSET -22.5879 0.773209 7.07136
              CHANNELS 3 Zrotation Xrotation Yrotation
              JOINT rThumb1
              {
                OFFSET -1.2192 -0.487915 3.41376
                CHANNELS 3 Zrotation Xrotation Yrotation
                JOINT rThumb2
                {
                  OFFSET -3.37035 -0.52449 3.41376
                  CHANNELS 3 Zrotation Xrotation Yrotation
                  End Site
                  {
                    OFFSET -1.78271 -1.18214 1.43049
                  }
                }
              }
              JOINT rIndex1
              {
                OFFSET -7.75947 0.938293 5.60832
                CHANNELS 3 Zrotation Xrotation Yrotation
                JOINT rIndex2
                {
                  OFFSET -2.54057 -0.884171 1.56538
                  CHANNELS 3 Zrotation Xrotation Yrotation
                  End Site
                  {
                    OFFSET -1.62519 -0.234802 1.16502
                  }
                }
              }
              JOINT rMid1
              {
                OFFSET -8.24714 1.18213 3.41376
                CHANNELS 3 Zrotation Xrotation Yrotation
                JOINT rMid2
                {
                  OFFSET -3.10165 -0.590103 1.0647
                  CHANNELS 3 Zrotation Xrotation Yrotation
                  End Site
                  {
                    OFFSET -2.48547 -0.328903 0.83742
                  }
                }
              }
              JOINT rRing1
              {
                OFFSET -8.82822 0.546677 1.51678
                CHANNELS 3 Zrotation Xrotation Yrotation
                JOINT rRing2
                {
                  OFFSET -2.60934 -0.819778 -0.0198488
                  CHANNELS 3 Zrotation Xrotation Yrotation
                  End Site
                  {
                    OFFSET -2.33842 -0.294052 0.168128
                  }
                }
              }
              JOINT rPinky1
              {
                OFFSET -8.27202 -0.0477905 -0.4584
                CHANNELS 3 Zrotation Xrotation Yrotation
                JOINT rPinky2
                {
                  OFFSET -1.82734 -0.647385 -0.700984
                  CHANNELS 3 Zrotation Xrotation Yrotation
                  End Site
                  {
                    OFFSET -1.69225 -0.51767 -0.607171
                  }
                }
              }
            }
          }
        }
      }
      JOINT lCollar
      {
        OFFSET 2.68224 19.2634 -4.8768
        CHANNELS 3 Zrotation Xrotation Yrotation
        JOINT lShldr
        {
          OFFSET 8.77824 -1.95073 1.46304
          CHANNELS 3 Zrotation Xrotation Yrotation
          JOINT lForeArm
          {
            OFFSET 28.1742 -1.7115 0.48768
            CHANNELS 3 Zrotation Xrotation Yrotation
            JOINT lHand
            {
              OFFSET 22.5879 0.773209 7.07136
              CHANNELS 3 Zrotation Xrotation Yrotation
              JOINT lThumb1
              {
                OFFSET 1.2192 -0.487915 3.41376
                CHANNELS 3 Zrotation Xrotation Yrotation
                JOINT lThumb2
                {
                  OFFSET 3.37035 -0.52449 3.41376
                  CHANNELS 3 Zrotation Xrotation Yrotation
                  End Site
                  {
                    OFFSET 1.78271 -1.18214 1.43049
                  }
                }
              }
              JOINT lIndex1
              {
                OFFSET 7.75947 0.938293 5.60832
                CHANNELS 3 Zrotation Xrotation Yrotation
                JOINT lIndex2
                {
                  OFFSET 2.54057 -0.884171 1.56538
                  CHANNELS 3 Zrotation Xrotation Yrotation
                  End Site
                  {
                    OFFSET 1.62519 -0.234802 1.16502
                  }
                }
              }
              JOINT lMid1
              {
                OFFSET 8.24714 1.18213 3.41376
                CHANNELS 3 Zrotation Xrotation Yrotation
                JOINT lMid2
                {
                  OFFSET 3.10165 -0.590103 1.0647
                  CHANNELS 3 Zrotation Xrotation Yrotation
                  End Site
                  {
                    OFFSET 2.48547 -0.328903 0.83742
                  }
                }
              }
              JOINT lRing1
              {
                OFFSET 8.82822 0.546677 1.51678
                CHANNELS 3 Zrotation Xrotation Yrotation
                JOINT lRing2
                {
                  OFFSET 2.60934 -0.819778 -0.0198488
                  CHANNELS 3 Zrotation Xrotation Yrotation
                  End Site
                  {
                    OFFSET 2.33842 -0.294052 0.168128
                  }
                }
              }
              JOINT lPinky1
              {
                OFFSET 8.27202 -0.0477905 -0.4584
                CHANNELS 3 Zrotation Xrotation Yrotation
                JOINT lPinky2
                {
                  OFFSET 1.82734 -0.647385 -0.700984
                  CHANNELS 3 Zrotation Xrotation Yrotation
                  End Site
                  {
                    OFFSET 1.69225 -0.51767 -0.607171
                  }
                }
              }
            }
          }
        }
      }
    }
  }
  JOINT rButtock
  {
    OFFSET -8.77824 4.35084 1.2192
    CHANNELS 3 Zrotation Xrotation Yrotation
    JOINT rThigh
    {
      OFFSET 0 -1.70687 -2.19456
      CHANNELS 3 Zrotation Xrotation Yrotation
      JOINT rShin
      {
        OFFSET 0 -36.8199 0.73152
        CHANNELS 3 Zrotation Xrotation Yrotation
        JOINT rFoot
        {
          OFFSET 0.73152 -45.1104 -5.12064
          CHANNELS 3 Zrotation Xrotation Yrotation
          End Site
          {
            OFFSET -1.1221 -3.69964 12.103
          }
        }
      }
    }
  }
  JOINT lButtock
  {
    OFFSET 8.77824 4.35084 1.2192
    CHANNELS 3 Zrotation Xrotation Yrotation
    JOINT lThigh
    {
      OFFSET 0 -1.70687 -2.19456
      CHANNELS 3 Zrotation Xrotation Yrotation
      JOINT lShin
      {
        OFFSET 0 -36.8199 0.73152
        CHANNELS 3 Zrotation Xrotation Yrotation
        JOINT lFoot
        {
          OFFSET -0.73152 -45.1104 -5.12064
          CHANNELS 3 Zrotation Xrotation Yrotation
          End Site
          {
            OFFSET 1.1221 -3.69964 12.103
          }
        }
      }
    }
  }
}
MOTION
Frames:	8
Frame Time:	0.03333
0.0 0.0 0.0 0.0 0.0 0.0 0.0 0.0 0.0 0.0 0.0 0.0 0.0 0.0 0.0 0.0 0.0 0.0 0.0 0.0 0.0 0.0 0.0 0.0 0.0 0.0 0.0 0.0 0.0 0.0 0.0 0.0 0.0 0.0 0.0 0.0 0.0 0.0 0.0 0.0 0.0 0.0 0.0 0.0 0.0 0.0 0.0 0.0 0.0 0.0 0.0 0.0 0.0 0.0 0.0 0.0 0.0 0.0 0.0 0.0 0.0 0.0 0.0 0.0 0.0 0.0 0.0 0.0 0.0 0.0 0.0 0.0 0.0 0.0 0.0 0.0 0.0 0.0 0.0 0.0 0.0 0.0 0.0 0.0 0.0 0.0 0.0 0.0 0.0 0.0 0.0 0.0 0.0 0.0 0.0 0.0 0.0 0.0 0.0 0.0 0.0 0.0 0.0 0.0 0.0 0.0 0.0 0.0 0.0 0.0 0.0 0.0 0.0 0.0 0.0 0.0 0.0 0.0 0.0 0.0 0.0 0.0 0.0 0.0 0.0 0.0 0.0 0.0 0.0 0.0 0.0 0.0
-0.2767 50.9689 -0.3269 -168.533361 1.427265 -172.842725 9.638261 7.681851 -0.0 3.113437 -7.845196 5.057967 9.92019 19.558439 90.838444 -30.809194 6.568872 -80.569627 -2.2e-05 0.0 -0.001506 -2.2e-05 0.0 -0.001506 -14.148251 43.061539 15.996626 -100.322635 -4.816846 173.595434 83.038701 -35.027589 -112.38424 -72.7716 56.587887 51.806241 96.572688 -51.195381 43.018057 -91.475181 37.845991 50.760059 -108.427424 34.161925 91.743767 176.540119 -40.928157 111.591464 78.536034 -80.919762 49.687214 -88.798893 63.891184 80.322266 -0.001686 -0.060769 -0.019578 11.200213 -15.763433 -1.940107 5.42058 16.06534 4.878783 45.023082 83.541388 -7.922634 13.947022 42.750573 -15.783735 -66.796273 -22.359356 -66.414767 -176.173006 0.798884 -106.095891 -151.417497 -38.290985 -138.651925 175.330219 -12.974656 -89.799203 -8.454502 -60.43967 -10.20745 -170.088515 -65.569067 -110.328063 -97.441711 -68.740161 -40.233968 158.521574 -0.192292 -142.144808 -92.06131 -78.190273 -63.04747 145.12326 1.122062 179.479186 -11.728099 26.404397 5.9929 153.205371 41.296463 148.281263 21.728948 -36.803608 22.716065 -0.002871 0.000643 -0.001435 -11.4457 11.06131 -133.459274 -23.126466 -23.965074 107.316335 154.659006 -22.69512 21.53273 0.0 -0.000409 0.000732 87.667175 -54.219857 -91.892901 -128.301967 -76.200859 -167.539947 -119.063316 -32.144291 150.830764
-0.5105000000000001 51.02680000000001 -0.5757 -168.506726 1.376662 -172.360092 7.280817 4.30159 120.416172 -6.559316 -2.329541 -115.573424 -11.087024 22.944556 -87.582564 35.750823 13.13084 93.947401 -0.001966 -0.0 0.004364 0.003717 0.0 0.003791 -142.974263 39.431695 147.390106 64.516432 -17.021829 78.455948 -169.285521 38.558468 33.33956 -163.144188 10.061978 139.708454 -85.829203 38.63024 47.955611 76.086458 -48.559429 31.169365 20.934045 -37.332174 -5.934552 -173.632811 -35.485636 108.108864 -0.058929 0.16756 0.033208 2.949387 0.845431 0.08461 -145.123609 1.08087 -179.467767 -135.730724 -63.694213 -157.639933 -46.799561 -48.626464 -45.558106 2.335414 -2.728066 -1.445156 155.762515 -5.234858 -162.199634 -151.361277 1.329291 159.357513 -83.188641 -32.204179 -73.053912 174.392885 50.53796 -152.127848 -51.06023 -41.203893 -12.856219 107.649872 33.236715 -81.192895 151.679999 -17.764856 -121.236502 85.798926 56.808397 -67.546696 -23.905764 -61.333474 -1.401293 -80.626053 -77.90166 -52.346664 0.000512 0.063504 -0.021392 -9.696436 -62.549845 9.190984 159.763865 65.345632 151.082518 14.996355 -29.865586 15.984706 -0.020461 0.001379 -0.015346 -11.030862 12.120649 -78.67055 -41.965819 4.397754 -57.502935 25.866175 15.649752 100.500602 179.999493 75.750006 0.000347 -143.726166 -8.119026 -0.0 -93.302699 82.286701 2.109444 114.092707 -49.7293 -158.046223
-0.8341 51.1437 -0.9221 -168.565068 1.363315 -171.748631 6.54986 5.042716 102.393856 -6.479214 -4.524312 -97.400699 -11.095427 22.478368 -85.098341 36.377977 11.776068 91.834761 0.000617 0.0 0.001517 0.000617 0.0 0.001517 0.163009 -0.990072 -0.218373 144.153707 59.314726 -84.257984 -81.346329 -51.825404 32.462839 2.104645 -68.914394 -9.014402 -160.051654 2.212926 88.877319 -4.094498 -45.542666 13.31422 -151.353705 -17.15841 121.13275 95.744726 -70.674615 42.636096 -125.642656 49.839419 115.273742 92.062113 -78.302122 62.889934 0.004943 1.772257 0.55721 -156.626619 -25.087087 174.789703 -156.380854 53.73443 -150.117883 -1.632139 -7.712254 -4.338703 159.22029 -48.72488 -170.568353 -10.324467 13.216413 44.918977 127.514844 8.579892 -179.461692 -11.120998 -11.804959 -8.864965 176.598246 -14.21318 -89.690858 167.810927 -5.102731 -90.883158 19.124491 24.073006 -13.345576 -52.786052 -49.705558 -12.113598 160.827272 -7.141921 -143.315243 163.780165 -6.246451 -143.111165 -0.001503 0.063902 -0.019186 140.368057 60.456122 -154.51366 23.391356 -36.349892 22.492038 147.176912 13.380319 143.817473 -179.999864 75.750468 -0.000141 98.387084 76.836155 168.153351 32.366312 3.969677 -140.041566 -119.303319 -27.96159 -3.732244 -0.000432 0.000925 0.000216 86.243207 -52.924239 0.0 -89.688184 15.552904 144.404389 33.404498 -33.80117 -42.323169
-1.247 51.3092 -1.3606 -168.763688 1.439368 -171.050018 10.281611 6.72893 -57.140154 7.058982 -2.530653 62.707631 10.071865 19.459015 90.912081 -32.560883 6.306993 -80.086659 0.000813 0.0 0.002739 0.000303 -0.0 -0.002867 3.540528 -62.05301 -13.040924 -77.88994 -32.651215 -75.100042 21.88775 -10.334544 -138.629541 -149.028283 34.638029 126.871284 83.253789 -50.259274 33.615539 -57.78071 31.420973 19.403141 5.921643 -10.174419 -2.969491 -2.190114 19.441308 4.712431 -141.10855 35.601031 129.174124 -128.865425 51.868084 118.162102 -67.608418 -72.074727 -84.37379 13.976016 27.616387 -0.734796 -153.204152 41.295609 -148.284285 16.303187 43.904946 6.235788 158.417709 -29.366506 -166.793257 29.59674 -11.380096 39.890978 82.213996 -38.814495 115.717005 -27.70054 -42.154674 -21.901192 7.350656 7.062339 -1.571381 122.506586 -17.691386 -108.204024 0.688637 1.108058 -0.394092 -7.863138 5.10984 -0.351304 36.035583 51.723271 -29.832184 86.722499 64.100001 -78.706478 0.00084 0.063597 -0.021227 156.484952 -25.092263 -174.789768 26.565132 -38.860643 25.605998 158.751927 54.196906 149.498585 -179.991094 75.749714 -0.007858 93.690272 78.065686 85.98836 -4.061014 30.48103 -53.980654 -24.493073 -26.216292 19.899574 -0.007328 0.000305 -0.007329 84.27329 -53.706442 83.737167 109.898547 78.76196 -14.159914 0.041001 -56.575922 -90.850948
-1.7385000000000002 51.518 -1.8821999999999999 -169.104242 1.557817 -170.299565 7.570859 7.629655 -0.696519 4.077606 -8.427756 6.844215 -11.078663 21.701494 -81.49839 37.388112 9.806057 88.648362 0.000246 0.0 0.001977 0.000246 0.0 0.001977 -41.909485 63.532084 44.547074 -104.284185 -11.903743 149.634536 -168.326749 21.589451 -78.81511 -9.174048 -32.048728 -7.738812 -89.135889 38.42715 50.299329 131.927735 -52.508432 58.051739 -150.885833 -16.291318 120.978772 -85.889043 56.806448 67.487511 -36.036315 51.722517 29.83378 13.362393 -30.008794 -1.306386 0.001395 0.06389 0.0197 11.106527 -13.792266 -1.711502 -152.200388 37.330748 -147.580906 45.766794 80.108969 -9.883876 -4.260136 -46.008891 8.910497 112.110564 6.204597 177.447165 7.385728 35.234536 64.700199 -135.53743 -53.024385 -124.237526 155.113733 6.918532 -87.738771 134.494286 2.293235 -65.380842 155.191638 -24.30038 -122.143147 -1.441112 19.720897 5.388264 89.835772 60.701923 -81.262546 -2.982169 1.309116 -0.348207 0.000235 -0.060864 0.018997 156.171509 -15.218599 -173.65283 6.905683 -15.265791 6.499056 -1.919895 -2.375347 0.769808 -179.999588 75.750068 -0.000282 92.993324 78.020037 86.698957 7.932946 27.601865 52.268804 -43.031089 69.271552 -51.813394 179.989759 75.750874 0.008426 -144.30892 -9.194571 101.341041 95.305466 -1.442999 159.964157 -9.386885 31.59233 129.892546
-2.2839 51.7691 -2.471 -169.487055 1.629711 -169.567999 4.43169 5.72798 72.159836 -4.592868 -8.314335 -66.34114 -11.067239 21.087317 -78.496364 37.791506 8.045765 86.004516 -0.001276 -0.0 1.3e-05 -0.001276 -0.0 1.3e-05 -155.416783 -2.951319 161.719009 -112.52199 37.76468 69.055369 136.103519 9.941269 -44.313545 -31.902201 30.044952 12.006181 -160.052428 2.213537 88.878322 21.800936 -56.282721 23.515135 -46.209655 39.652401 36.318223 -164.371938 -11.004486 112.135592 -160.09845 -4.901357 142.968012 -175.517282 -39.364656 142.846514 -145.120557 0.185739 -179.186034 -16.096755 -68.329932 -37.228121 -85.783835 -50.53697 -84.155085 -136.959258 -12.647171 -134.924264 155.445958 -3.134535 -161.757625 -146.170588 12.535186 160.053709 3.839565 12.977912 -39.724289 6.300497 42.605539 -4.613454 8.203199 7.848296 -1.807671 -176.086191 -75.610867 -94.264091 -37.21674 -57.917495 0.642121 164.920381 -27.436541 -112.428861 160.672991 -6.667523 -143.246496 8.689263 28.340402 -7.301501 -0.004785 1.771554 -0.555391 -9.696854 6.272958 -0.751693 145.217745 12.204129 141.859916 147.697205 12.09264 141.783691 -0.000744 -0.000747 -0.000372 -11.190374 12.560083 -81.014197 -38.069348 6.346335 -99.030881 126.0241 -19.780192 -163.65175 179.999026 75.747646 0.0 -143.051097 -9.646369 -180.0 -167.091746 -82.913535 110.36118 1.615473 -57.095681 -88.040789
-2.8829000000000002 52.0544 -3.1504 -169.784071 1.483694 -168.913385 3.699447 5.032412 84.817523 -5.79768 -7.375525 -79.041754 3.256166 30.170588 171.329741 -10.168522 44.16385 -157.831145 -0.00371 -0.0 0.001085 0.001965 0.0 0.000441 -5.825017 24.937237 6.990074 -100.985081 -3.773932 -168.365301 7.055299 3.182138 -138.292648 -157.061659 21.167867 135.020031 -178.926707 -16.454008 89.422135 178.221394 -18.256798 99.297871 -46.207981 39.653772 36.317509 -102.516252 46.774551 77.141597 6.532638 -20.414966 -2.719122 -2.214524 14.728795 2.659359 0.001345 0.063863 0.01944 -155.417238 -1.076756 171.97622 -126.7956 -26.619257 -124.512932 34.47752 74.521159 0.573369 13.744107 42.431346 -15.569997 -82.538909 -27.014218 -73.313969 -13.083192 7.148952 -37.106223 16.513979 61.652424 -9.747912 -4.41653 -4.400776 0.51243 136.643179 -37.747547 -120.537087 173.60119 -52.692833 -119.891975 0.281533 25.623865 2.077476 -23.903882 -61.333813 -1.400015 175.463316 -39.339071 -143.207673 145.120118 0.225945 179.200845 148.140785 -43.033216 170.609108 148.24208 22.397134 144.472452 25.860508 -40.225631 26.985128 -179.989833 75.748684 -0.008365 90.65958 78.062469 89.085196 9.252396 29.835997 92.298779 75.262855 61.507761 -172.680649 7e-06 -0.000848 0.0 82.172219 -53.220846 81.099208 122.150292 82.049252 -29.027844 7.743124 -50.89193 -77.782142
